<svg xmlns="http://www.w3.org/2000/svg" viewBox="0 0 600 550" width="100%" height="100%">
  <path fill="#7C3AED" fill-rule="evenodd" d="
    M 300,20 
    L 150,240 
    L 60,240 
    L 60,440 
    L 110,440 
    L 110,520 
    L 180,440 
    L 280,440 
    L 280,240 
    L 225,240 
    L 300,130 
    Z 
    M 140,295 
    L 230,295 
    L 255,315 
    L 280,315 
    L 280,330 
    L 255,330 
    L 225,355 
    L 170,355 
    Z" />

  <path fill="#111111" fill-rule="evenodd" d="
    M 300,20 
    L 450,240 
    L 540,240 
    L 540,440 
    L 490,440 
    L 490,520 
    L 420,440 
    L 320,440 
    L 320,240 
    L 375,240 
    L 300,130 
    Z 
    M 460,295 
    L 430,355 
    L 375,355 
    L 345,330 
    L 320,330 
    L 320,315 
    L 345,315 
    L 370,295 
    Z" />
</svg>
